HIERARCHY
ROOT Hips
{
	OFFSET 0.000000 121.760803 0.000000
	CHANNELS 6 Xposition Yposition Zposition Xrotation Yrotation Zrotation 
	JOINT Spine
	{
		OFFSET 0.072000 7.257294 -0.789700
		CHANNELS 3 Xrotation Yrotation Zrotation
		JOINT Spine1
		{
			OFFSET 0.000000 12.508769 -0.658067
			CHANNELS 3 Xrotation Yrotation Zrotation
			JOINT Spine1_split
			{
				OFFSET 0.000000 12.508769 -0.658067
				CHANNELS 3 Xrotation Yrotation Zrotation
				JOINT Spine2
				{
					OFFSET 0.000000 12.508769 -0.658067
					CHANNELS 3 Xrotation Yrotation Zrotation
					JOINT Neck
					{
						OFFSET 0.000000 14.033295 7.520400
						CHANNELS 3 Xrotation Yrotation Zrotation
						JOINT Head
						{
							OFFSET 0.000000 8.198502 5.703100
							CHANNELS 3 Xrotation Yrotation Zrotation
							JOINT HeadTop_End
							{
								OFFSET 0.000000 17.760803 13.332701
								CHANNELS 3 Xrotation Yrotation Zrotation
								End Site
								{
									OFFSET 0.000000 0.000000 0.000000
								}
							}
						}
					}
					JOINT LeftShoulder
					{
						OFFSET 6.292450 5.785301 -0.669000
						CHANNELS 3 Xrotation Yrotation Zrotation
						JOINT LeftShoulder_split
						{
							OFFSET 6.292450 5.785301 -0.669000
							CHANNELS 3 Xrotation Yrotation Zrotation
							JOINT LeftArm
							{
								OFFSET 13.907140 -6.093903 1.965100
								CHANNELS 3 Xrotation Yrotation Zrotation
								JOINT LeftForeArm
								{
									OFFSET 34.140198 0.000000 0.000000
									CHANNELS 3 Xrotation Yrotation Zrotation
									JOINT LeftHand
									{
										OFFSET 40.960209 0.000000 0.000000
										CHANNELS 3 Xrotation Yrotation Zrotation
										JOINT LeftHandThumb1
										{
											OFFSET 10.006996 -7.170425 9.573125
											CHANNELS 3 Xrotation Yrotation Zrotation
											JOINT LeftHandThumb2
											{
												OFFSET 1.835007 -1.059448 1.059443
												CHANNELS 3 Xrotation Yrotation Zrotation
												JOINT LeftHandThumb3
												{
													OFFSET 2.112267 -1.219513 1.219518
													CHANNELS 3 Xrotation Yrotation Zrotation
													JOINT LeftHandThumb4
													{
														OFFSET 4.843811 -2.796570 2.796576
														CHANNELS 3 Xrotation Yrotation Zrotation
														End Site
														{
															OFFSET 0.000000 0.000000 0.000000
														}
													}
												}
											}
										}
										JOINT LeftHandIndex1
										{
											OFFSET 18.389847 -0.922348 4.596882
											CHANNELS 3 Xrotation Yrotation Zrotation
											JOINT LeftHandIndex2
											{
												OFFSET 4.711273 0.000000 0.000000
												CHANNELS 3 Xrotation Yrotation Zrotation
												JOINT LeftHandIndex3
												{
													OFFSET 2.886131 0.000000 0.000000
													CHANNELS 3 Xrotation Yrotation Zrotation
													JOINT LeftHandIndex4
													{
														OFFSET 6.145912 0.000000 0.000000
														CHANNELS 3 Xrotation Yrotation Zrotation
														End Site
														{
															OFFSET 0.000000 0.000000 0.000000
														}
													}
												}
											}
										}
										JOINT LeftHandMiddle1
										{
											OFFSET 18.013008 0.000000 0.000000
											CHANNELS 3 Xrotation Yrotation Zrotation
											JOINT LeftHandMiddle2
											{
												OFFSET 4.946693 0.000000 0.000000
												CHANNELS 3 Xrotation Yrotation Zrotation
												JOINT LeftHandMiddle3
												{
													OFFSET 3.342232 0.000000 0.000000
													CHANNELS 3 Xrotation Yrotation Zrotation
													JOINT LeftHandMiddle4
													{
														OFFSET 4.461754 0.000000 0.000000
														CHANNELS 3 Xrotation Yrotation Zrotation
														End Site
														{
															OFFSET 0.000000 0.000000 0.000000
														}
													}
												}
											}
										}
										JOINT LeftHandRing1
										{
											OFFSET 15.849892 -0.102921 -4.126150
											CHANNELS 3 Xrotation Yrotation Zrotation
											JOINT LeftHandRing2
											{
												OFFSET 3.527054 0.000000 0.000000
												CHANNELS 3 Xrotation Yrotation Zrotation
												JOINT LeftHandRing3
												{
													OFFSET 2.961098 0.000000 0.000000
													CHANNELS 3 Xrotation Yrotation Zrotation
													JOINT LeftHandRing4
													{
														OFFSET 4.927200 0.000000 0.000000
														CHANNELS 3 Xrotation Yrotation Zrotation
														End Site
														{
															OFFSET 0.000000 0.000000 0.000000
														}
													}
												}
											}
										}
										JOINT LeftHandPinky1
										{
											OFFSET 12.791824 -0.832031 -6.799156
											CHANNELS 3 Xrotation Yrotation Zrotation
											JOINT LeftHandPinky2
											{
												OFFSET 3.327133 0.000000 0.000000
												CHANNELS 3 Xrotation Yrotation Zrotation
												JOINT LeftHandPinky3
												{
													OFFSET 3.014900 0.000000 0.000000
													CHANNELS 3 Xrotation Yrotation Zrotation
													JOINT LeftHandPinky4
													{
														OFFSET 5.847786 0.000000 0.000000
														CHANNELS 3 Xrotation Yrotation Zrotation
														End Site
														{
															OFFSET 0.000000 0.000000 0.000000
														}
													}
												}
											}
										}
									}
								}
							}
						}
					}
					JOINT RightShoulder
					{
						OFFSET -6.292450 5.785301 -0.669000
						CHANNELS 3 Xrotation Yrotation Zrotation
						JOINT RightShoulder_split
						{
							OFFSET -6.292450 5.785301 -0.669000
							CHANNELS 3 Xrotation Yrotation Zrotation
							JOINT RightArm
							{
								OFFSET -13.907140 -6.093903 1.965100
								CHANNELS 3 Xrotation Yrotation Zrotation
								JOINT RightForeArm
								{
									OFFSET -34.140198 0.000000 0.000000
									CHANNELS 3 Xrotation Yrotation Zrotation
									JOINT RightHand
									{
										OFFSET -40.960209 0.000000 0.000000
										CHANNELS 3 Xrotation Yrotation Zrotation
										JOINT RightHandThumb1
										{
											OFFSET -10.007050 -7.170456 9.573117
											CHANNELS 3 Xrotation Yrotation Zrotation
											JOINT RightHandThumb2
											{
												OFFSET -1.835007 -1.059448 1.059443
												CHANNELS 3 Xrotation Yrotation Zrotation
												JOINT RightHandThumb3
												{
													OFFSET -2.112267 -1.219513 1.219518
													CHANNELS 3 Xrotation Yrotation Zrotation
													JOINT RightHandThumb4
													{
														OFFSET -4.843834 -2.796585 2.796590
														CHANNELS 3 Xrotation Yrotation Zrotation
														End Site
														{
															OFFSET 0.000000 0.000000 0.000000
														}
													}
												}
											}
										}
										JOINT RightHandIndex1
										{
											OFFSET -18.389870 -0.922424 4.596786
											CHANNELS 3 Xrotation Yrotation Zrotation
											JOINT RightHandIndex2
											{
												OFFSET -4.711273 0.000000 0.000000
												CHANNELS 3 Xrotation Yrotation Zrotation
												JOINT RightHandIndex3
												{
													OFFSET -2.886131 0.000000 0.000000
													CHANNELS 3 Xrotation Yrotation Zrotation
													JOINT RightHandIndex4
													{
														OFFSET -6.145920 0.000000 0.000000
														CHANNELS 3 Xrotation Yrotation Zrotation
														End Site
														{
															OFFSET 0.000000 0.000000 0.000000
														}
													}
												}
											}
										}
										JOINT RightHandMiddle1
										{
											OFFSET -18.013008 0.000000 0.000000
											CHANNELS 3 Xrotation Yrotation Zrotation
											JOINT RightHandMiddle2
											{
												OFFSET -4.946693 0.000000 0.000000
												CHANNELS 3 Xrotation Yrotation Zrotation
												JOINT RightHandMiddle3
												{
													OFFSET -3.342232 0.000000 0.000000
													CHANNELS 3 Xrotation Yrotation Zrotation
													JOINT RightHandMiddle4
													{
														OFFSET -4.461754 0.000000 0.000000
														CHANNELS 3 Xrotation Yrotation Zrotation
														End Site
														{
															OFFSET 0.000000 0.000000 0.000000
														}
													}
												}
											}
										}
										JOINT RightHandRing1
										{
											OFFSET -15.849876 -0.102936 -4.126237
											CHANNELS 3 Xrotation Yrotation Zrotation
											JOINT RightHandRing2
											{
												OFFSET -3.527054 0.000000 0.000000
												CHANNELS 3 Xrotation Yrotation Zrotation
												JOINT RightHandRing3
												{
													OFFSET -2.961098 0.000000 0.000000
													CHANNELS 3 Xrotation Yrotation Zrotation
													JOINT RightHandRing4
													{
														OFFSET -4.927200 0.000000 0.000000
														CHANNELS 3 Xrotation Yrotation Zrotation
														End Site
														{
															OFFSET 0.000000 0.000000 0.000000
														}
													}
												}
											}
										}
										JOINT RightHandPinky1
										{
											OFFSET -12.791786 -0.832077 -6.799222
											CHANNELS 3 Xrotation Yrotation Zrotation
											JOINT RightHandPinky2
											{
												OFFSET -3.327133 0.000000 0.000000
												CHANNELS 3 Xrotation Yrotation Zrotation
												JOINT RightHandPinky3
												{
													OFFSET -3.014900 0.000000 0.000000
													CHANNELS 3 Xrotation Yrotation Zrotation
													JOINT RightHandPinky4
													{
														OFFSET -5.847786 0.000000 0.000000
														CHANNELS 3 Xrotation Yrotation Zrotation
														End Site
														{
															OFFSET 0.000000 0.000000 0.000000
														}
													}
												}
											}
										}
									}
								}
							}
						}
					}
				}
			}
		}
	}
	JOINT LeftUpLeg
	{
		OFFSET 13.026900 -6.336304 -1.092800
		CHANNELS 3 Xrotation Yrotation Zrotation
		JOINT LeftLeg
		{
			OFFSET 0.524474 -46.096886 9.782700
			CHANNELS 3 Xrotation Yrotation Zrotation
			JOINT LeftFoot
			{
				OFFSET -0.524474 -53.427422 -12.948200
				CHANNELS 3 Xrotation Yrotation Zrotation
				JOINT LeftToeBase
				{
					OFFSET 0.192200 -14.009700 16.364100
					CHANNELS 3 Xrotation Yrotation Zrotation
					JOINT LeftToe_End
					{
						OFFSET -1.784700 -0.561700 9.474800
						CHANNELS 3 Xrotation Yrotation Zrotation
						End Site
						{
							OFFSET 0.000000 0.000000 0.000000
						}
					}
				}
			}
		}
	}
	JOINT RightUpLeg
	{
		OFFSET -12.883000 -6.336304 -1.092800
		CHANNELS 3 Xrotation Yrotation Zrotation
		JOINT RightLeg
		{
			OFFSET -0.524587 -46.096825 9.782800
			CHANNELS 3 Xrotation Yrotation Zrotation
			JOINT RightFoot
			{
				OFFSET 0.524587 -53.427383 -12.948300
				CHANNELS 3 Xrotation Yrotation Zrotation
				JOINT RightToeBase
				{
					OFFSET -0.192200 -14.009700 16.364100
					CHANNELS 3 Xrotation Yrotation Zrotation
					JOINT RightToe_End
					{
						OFFSET 1.784700 -0.561700 9.474800
						CHANNELS 3 Xrotation Yrotation Zrotation
						End Site
						{
							OFFSET 0.000000 0.000000 0.000000
						}
					}
				}
			}
		}
	}
}
MOTION
Frames: 5
Frame Time: 0.016667
-1.145266 95.926697 0.541076 11.742482 -49.637959 11.853848 11.000863 2.884903 -2.598335 6.100716 5.566535 -4.284689 0.000000 0.000000 0.000000 -5.786904 6.328141 -3.046186 2.318644 9.363430 -0.265733 -4.146873 23.161854 -3.522968 -0.000000 0.000000 -0.000000 -1.882853 -16.244760 -2.883353 0.000000 0.000000 0.000000 -10.641504 2.224945 -45.488356 -22.862392 -25.786235 -15.871720 2.491069 -2.511878 6.860501 18.457934 -9.513782 13.216579 -1.150196 11.255284 -8.400888 5.706531 8.483115 -0.820710 0.000001 -0.000001 -0.000002 -1.232802 -5.771931 -0.192324 0.133963 -0.197637 -4.602082 0.055744 -0.448198 -7.568207 0.000000 0.000001 -0.000003 1.884742 4.663369 -4.597386 0.476672 -1.009833 -12.986435 0.628520 -1.346608 -16.554005 -0.000000 -0.000002 -0.000001 3.024628 7.938941 -14.103454 -0.708050 -0.566185 -18.895730 -0.726383 -0.705014 -22.058441 0.000001 -0.000000 -0.000001 2.010361 6.305992 -22.386527 -0.815386 -0.210770 -16.746493 -2.232639 0.018972 -34.673851 -0.000000 0.000003 0.000003 -5.080962 24.428095 1.493067 0.000000 0.000000 0.000000 6.647386 -34.818556 57.612919 -21.031962 44.833813 19.961650 -0.087244 35.608495 7.474291 55.149577 18.649505 -29.698277 -0.442568 -14.180546 7.313121 21.667016 -29.244517 9.142412 -0.000000 0.000000 -0.000001 5.673413 7.585045 36.844158 1.050458 3.824468 68.900223 0.499559 3.026049 62.196454 -0.000003 -0.000000 0.000000 -0.125683 1.886090 45.000753 -1.169002 3.204683 68.417657 -0.936407 1.813636 41.107545 0.000002 0.000000 -0.000000 -5.312010 1.216641 58.508807 -0.745185 1.667569 48.011264 -0.816473 1.840646 53.666555 0.000000 0.000001 -0.000002 -7.756762 -9.376453 47.264031 -0.526079 1.541575 45.600501 -0.508167 0.803458 24.986610 -0.000004 0.000001 -0.000001 -66.339353 27.373841 41.603331 43.627881 -19.169592 3.300714 6.155077 0.696636 -10.402337 -0.952463 -6.111285 0.979869 0.000000 -0.000001 0.000000 -33.768418 0.305381 -25.532133 50.491023 2.246181 -6.583202 -23.896054 -2.615066 25.261397 0.528349 2.970006 1.471343 0.000000 -0.000003 0.000000 
-1.189007 95.911125 0.533642 11.725956 -49.779505 11.857500 10.999153 2.939027 -2.612928 6.133759 5.604288 -4.247335 0.000000 0.000000 0.000000 -5.764548 6.336161 -3.016237 2.313013 9.402299 -0.496344 -4.187055 23.085213 -3.410673 -0.000000 -0.000000 -0.000000 -1.903000 -16.283494 -3.000826 0.000000 0.000000 0.000000 -10.665527 2.222325 -45.395124 -22.827809 -25.744981 -15.838632 2.461426 -2.435286 6.885889 18.464890 -9.494853 13.214769 -1.134534 11.275830 -8.403361 5.716616 8.500864 -0.821534 -0.000003 -0.000001 0.000002 -1.233070 -5.735421 -0.262387 0.133844 -0.200947 -4.674396 0.054936 -0.451112 -7.636853 0.000002 -0.000002 0.000001 1.884278 4.658504 -4.668123 0.474422 -1.015916 -13.148156 0.626708 -1.350726 -16.622975 -0.000003 -0.000000 0.000000 3.023514 7.934863 -14.172990 -0.709381 -0.572801 -19.056754 -0.727126 -0.707924 -22.125723 -0.000005 -0.000002 -0.000002 2.010006 6.304097 -22.455458 -0.816751 -0.219688 -16.906988 -2.232371 0.017901 -34.736942 -0.000000 0.000001 -0.000001 -5.036450 24.265323 1.406469 0.000000 0.000000 0.000000 6.704555 -34.680320 57.476083 -20.413753 44.915430 19.709406 0.211633 35.320237 6.345752 55.149574 18.649550 -29.698274 -0.442551 -14.180572 7.313217 21.648314 -29.254667 9.095110 -0.000000 -0.000000 -0.000001 5.673389 7.585028 36.844144 1.050444 3.824489 68.900237 0.499545 3.026035 62.196447 0.000000 0.000001 -0.000002 -0.125548 1.886255 45.000783 -1.169015 3.204650 68.417643 -0.934032 1.814870 41.107487 0.000002 -0.000001 -0.000001 -5.312128 1.216708 58.508753 -0.743528 1.669644 48.011261 -0.816471 1.840556 53.666524 0.000000 -0.000001 0.000001 -7.756762 -9.376478 47.264018 -0.524066 1.543659 45.600450 -0.507494 0.803901 24.986601 -0.000002 -0.000001 0.000002 -66.272765 27.359226 41.673498 43.653764 -18.995907 3.361928 6.121431 0.706252 -10.505805 -1.023486 -6.351886 1.048595 -0.000000 -0.000000 0.000000 -33.779134 0.397351 -25.473112 50.547857 2.251192 -6.582783 -23.921862 -2.590092 25.238104 0.612553 2.963425 1.439380 0.000000 0.000002 -0.000000 
-1.235361 95.894768 0.517132 11.579655 -49.916402 11.784592 11.019504 2.976027 -2.636994 6.210104 5.609804 -4.231207 0.000000 0.000000 0.000000 -5.697416 6.318254 -3.012863 2.193457 9.464195 -0.640305 -4.095895 23.049768 -3.380866 -0.000000 0.000000 0.000000 -1.908066 -16.258767 -3.020665 0.000000 0.000000 0.000000 -10.687436 2.247394 -45.360027 -22.769663 -25.731452 -15.803251 2.450932 -2.428310 6.875488 18.484910 -9.440109 13.209255 -1.089326 11.335331 -8.410327 5.745638 8.552549 -0.824129 -0.000001 0.000001 0.000002 -1.233501 -5.629211 -0.465557 0.133383 -0.210487 -4.883976 0.053098 -0.460255 -7.835763 -0.000002 0.000001 0.000000 1.883513 4.644736 -4.873351 0.467267 -1.037511 -13.616824 0.623316 -1.357839 -16.823287 -0.000001 0.000002 0.000001 3.021430 7.923323 -14.374516 -0.715604 -0.596527 -19.523346 -0.729466 -0.715985 -22.320729 -0.000004 -0.000000 -0.000001 2.012097 6.297365 -22.655577 -0.821031 -0.245818 -17.372238 -2.235757 0.009467 -34.919916 -0.000001 0.000001 0.000003 -5.072079 24.344568 1.612734 0.000000 0.000000 0.000000 6.672732 -34.749632 56.881703 -18.584955 45.084019 18.881583 0.891884 34.215932 3.308615 55.149533 18.649563 -29.698253 -0.442576 -14.180583 7.313326 21.629549 -29.264772 9.047773 0.000000 -0.000002 -0.000000 5.673418 7.585016 36.844127 1.050390 3.824499 68.900298 0.499591 3.025997 62.196440 -0.000001 -0.000003 0.000006 -0.125381 1.886434 45.000776 -1.169048 3.204632 68.417718 -0.931637 1.816042 41.107470 -0.000001 0.000002 0.000002 -5.312248 1.216738 58.508807 -0.741754 1.671688 48.011145 -0.816504 1.840575 53.666552 -0.000000 -0.000002 0.000002 -7.756767 -9.376525 47.264038 -0.522049 1.545770 45.600430 -0.506832 0.804325 24.986577 -0.000000 -0.000000 0.000001 -66.113929 27.374293 41.708472 43.687987 -19.012953 3.420761 6.052958 0.714781 -10.607788 -1.033060 -6.221837 1.059425 0.000000 0.000000 0.000000 -33.709559 0.474519 -25.452282 50.602939 2.289482 -6.577998 -23.887463 -2.555437 25.202505 0.552211 2.999107 1.361367 0.000000 0.000001 0.000000 
-1.279114 95.879013 0.462897 11.498921 -50.098307 11.778023 11.028840 3.006325 -2.662197 6.262224 5.612156 -4.216227 0.000000 0.000000 0.000000 -5.653941 6.298711 -3.010384 2.178519 9.585928 -0.934683 -4.140468 23.001128 -3.228223 0.000000 0.000000 0.000000 -1.889329 -15.962415 -3.044853 0.000000 0.000000 0.000000 -10.743598 2.048051 -45.378964 -22.673253 -25.677845 -15.719306 2.461767 -2.430182 6.807753 18.516875 -9.352235 13.200230 -1.014994 11.429180 -8.416380 5.790254 8.636291 -0.824202 -0.000004 -0.000002 0.000001 -1.230636 -5.459039 -0.790874 0.132221 -0.225667 -5.219955 0.050225 -0.475067 -8.154643 -0.000001 0.000001 -0.000002 1.882256 4.622879 -5.202232 0.455164 -1.074104 -14.367989 0.618018 -1.369284 -17.144248 0.000003 -0.000002 0.000002 3.018047 7.905096 -14.697566 -0.726061 -0.634162 -20.270953 -0.733267 -0.728763 -22.633297 -0.000001 0.000002 0.000001 2.014173 6.287030 -22.976362 -0.828499 -0.287372 -18.117840 -2.241682 -0.004288 -35.213081 0.000002 0.000001 0.000001 -5.079893 24.138017 1.822009 0.000000 0.000000 0.000000 6.573123 -34.379525 55.764536 -14.830224 45.143282 17.007526 2.052951 32.012366 -1.966966 55.149529 18.649524 -29.698287 -0.442602 -14.180550 7.313393 21.610794 -29.274901 9.000464 -0.000001 0.000000 -0.000001 5.673389 7.585056 36.844141 1.050420 3.824483 68.900271 0.499581 3.025995 62.196440 0.000002 -0.000001 0.000003 -0.125231 1.886610 45.000766 -1.169006 3.204672 68.417718 -0.929308 1.817313 41.107425 -0.000000 0.000001 -0.000000 -5.312369 1.216862 58.508753 -0.740112 1.673717 48.011145 -0.816472 1.840515 53.666497 0.000004 -0.000000 -0.000001 -7.756703 -9.376516 47.264038 -0.520071 1.547881 45.600317 -0.506201 0.804695 24.986584 -0.000005 -0.000001 0.000002 -65.975802 27.399478 41.752140 43.684077 -18.869706 3.510399 6.024457 0.699678 -10.749409 -1.099703 -6.317852 1.125839 0.000000 -0.000002 0.000000 -33.721552 0.615108 -25.393808 50.698746 2.316338 -6.573869 -23.881565 -2.519656 25.146801 0.666940 2.972471 1.343025 -0.000000 -0.000001 -0.000000 
-1.323535 95.870140 0.412978 11.257465 -50.197297 11.730321 11.046976 3.029481 -2.700895 6.331293 5.599935 -4.228945 0.000000 0.000000 0.000000 -5.592466 6.271885 -3.037233 2.123662 9.689424 -1.179597 -4.049714 22.935637 -3.100422 -0.000001 0.000000 0.000000 -1.896879 -15.889952 -3.087223 0.000000 0.000000 0.000000 -10.739194 2.060724 -45.364245 -22.581778 -25.698809 -15.654585 2.485500 -2.423245 6.647027 18.557583 -9.232465 13.192370 -0.915180 11.555367 -8.424775 5.850205 8.748685 -0.824584 -0.000000 0.000004 -0.000001 -1.223552 -5.230813 -1.228085 0.130552 -0.246034 -5.671138 0.046351 -0.495022 -8.582855 0.000000 0.000001 -0.000002 1.880533 4.593752 -5.644045 0.438380 -1.123003 -15.377017 0.609881 -1.387904 -17.575345 0.000003 -0.000002 -0.000001 3.018436 7.879852 -15.132142 -0.741077 -0.684185 -21.275440 -0.740449 -0.750331 -23.052995 -0.000002 0.000001 -0.000000 2.016110 6.267747 -23.406865 -0.839672 -0.342795 -19.119428 -2.249906 -0.022701 -35.606917 0.000004 0.000005 0.000003 -5.134572 24.848303 2.120641 0.000000 0.000000 0.000000 6.274983 -34.716168 53.957668 -9.547839 44.108423 14.324986 3.182603 29.069429 -8.558549 55.149533 18.649550 -29.698267 -0.442587 -14.180568 7.313458 21.592011 -29.284972 8.953128 0.000001 -0.000000 -0.000001 5.673417 7.585022 36.844144 1.050416 3.824513 68.900257 0.499595 3.026022 62.196427 -0.000002 0.000002 -0.000003 -0.125013 1.886758 45.000739 -1.169017 3.204692 68.417663 -0.926908 1.818509 41.107377 -0.000001 -0.000000 0.000000 -5.312506 1.216863 58.508766 -0.738344 1.675772 48.011073 -0.816482 1.840542 53.666538 0.000001 0.000001 -0.000001 -7.756711 -9.376521 47.264028 -0.518013 1.549932 45.600252 -0.505525 0.805171 24.986594 -0.000000 0.000001 0.000000 -65.661204 27.489722 41.603324 43.642440 -18.790743 3.648544 5.993319 0.674777 -10.917690 -1.101803 -6.280957 1.129743 -0.000000 -0.000000 -0.000000 -33.650710 0.679343 -25.493509 50.798685 2.428170 -6.556540 -23.841393 -2.467076 25.059370 0.625083 2.940823 1.336918 -0.000000 -0.000000 -0.000000 
